<?xml version="1.0" standalone="no"?>
<!DOCTYPE svg PUBLIC "-//W3C//DTD SVG 20010904//EN"
 "http://www.w3.org/TR/2001/REC-SVG-20010904/DTD/svg10.dtd">
<svg version="1.0" xmlns="http://www.w3.org/2000/svg"
 width="145.000000pt" height="164.000000pt" viewBox="0 0 145.000000 164.000000"
 preserveAspectRatio="xMidYMid meet">

<g transform="translate(0.000000,164.000000) scale(0.100000,-0.100000)"
fill="#000000" stroke="none">
<path d="M697 1471 l-107 -110 0 -534 0 -535 -31 -11 c-17 -6 -35 -8 -40 -5
-5 3 -9 173 -9 380 0 206 -4 374 -8 374 -5 0 -56 -49 -115 -109 l-107 -108 0
-272 c0 -246 -2 -271 -17 -271 -24 0 -81 46 -98 80 -24 46 -19 135 12 205 14
33 28 85 30 115 l4 55 -21 -25 c-11 -14 -40 -64 -64 -111 -143 -283 -26 -499
270 -499 338 0 773 273 938 589 122 234 72 435 -122 496 -22 6 -23 4 -20 -27
1 -18 17 -52 34 -75 38 -50 47 -93 34 -162 -10 -52 -62 -163 -100 -211 -20
-25 -20 -24 -20 347 0 204 -4 374 -8 377 -5 3 -59 -46 -120 -108 l-112 -113 0
-377 0 -376 -32 -20 -33 -20 -5 582 c-3 399 -8 582 -16 585 -6 2 -58 -46 -117
-106z"/>
</g>
</svg>
